<svg version="1.1" xmlns="http://www.w3.org/2000/svg" style="display: block;" viewBox="0 0 2048 2048" width="1024" height="1024" preserveAspectRatio="none">
<path transform="translate(0,0)" fill="rgb(255,255,255)" d="M 0 0 L 2048 0 L 2048 2048 L 0 2048 L 0 0 z"/>
<path transform="translate(0,0)" fill="rgb(0,0,0)" d="M 713.271 538.428 C 807.156 531.743 893.177 558.078 976.047 599.311 C 1126.4 571.213 1306.35 583.473 1450.28 634.581 C 1538.17 665.789 1636.26 715.565 1693.94 791.649 C 1707.19 809.13 1716.45 826.768 1725.87 846.348 C 1748.75 860.239 1769.73 873.074 1781.36 898.409 C 1789.85 917.076 1790.42 938.392 1782.93 957.485 C 1775.69 976.378 1763.76 988.847 1745.43 997.137 C 1739.58 1009.08 1731.67 1019.9 1722.06 1029.09 C 1647.73 1101.3 1504.94 1102.51 1408.44 1100.88 C 1405.68 1111.1 1402.43 1121.19 1398.69 1131.1 C 1371.91 1202.76 1319.21 1266.79 1249.1 1299.4 C 1224.72 1310.73 1193.74 1318.67 1168.5 1305.49 C 1154.36 1298.12 1148.1 1287.7 1142.09 1273.78 C 1095.64 1289.08 1016.28 1309.38 984.511 1256.87 C 961.628 1215.56 995.78 1170.62 1010.83 1132.44 C 1018.61 1112.7 1023.84 1098.31 1029.55 1078.11 C 869.509 1065.02 622.467 1066.68 539.988 1235.48 C 525.979 1266.64 518.51 1289.58 550.939 1313.08 C 652.729 1386.87 750.473 1448.88 875.203 1478.48 C 902.912 1484.87 930.97 1489.64 959.234 1492.76 C 970.357 1493.95 996.896 1493.12 1005.64 1499.88 C 1012.8 1506.09 1012.52 1519.36 1005.11 1524.84 C 949.101 1566.29 862.452 1583.56 795.226 1584.81 C 683.159 1586.91 532.89 1552.96 450.223 1474.08 C 414.01 1509.81 366.33 1515.89 325.82 1548.77 C 312.111 1559.9 300.228 1573.11 290.602 1587.92 C 284.156 1597.81 276.353 1617.68 270.996 1621.84 C 266.911 1625.06 261.65 1626.4 256.521 1625.52 C 252.374 1624.78 247.598 1621.94 245.676 1618.13 C 192.948 1513.74 240.441 1384.94 323.192 1310.65 C 331.323 1300.83 369.363 1273.91 373.039 1263.63 C 377.905 1250.03 381.538 1198.64 383.519 1183.56 C 385.935 1165.66 388.822 1147.82 392.176 1130.06 C 416.912 1005.82 469.686 892.173 558.495 800.494 C 596.221 761.549 633.304 733.373 677.959 703.457 C 668.5 656.853 623.207 628.457 586.281 604.655 C 581.782 601.755 577.473 595.008 577.095 589.563 C 576.127 575.592 592.314 568.492 602.727 563.333 C 637.426 546.46 675.172 540.576 713.271 538.428 z"/>
<path transform="translate(0,0)" fill="rgb(255,255,255)" d="M 763.953 908.4 C 812.088 902.857 830.067 928.553 862.61 953.842 C 930.278 1006.43 1016.03 1001.36 1096.47 991.186 C 1118.36 988.487 1140.24 985.627 1162.08 982.607 C 1145.36 1014.07 1121.42 1011.87 1103 1034.94 C 1086.94 1055.04 1084.14 1095.92 1073.09 1123.92 C 1068.26 1135.97 1062.5 1147.62 1055.87 1158.78 C 1047.9 1172.49 1038.95 1185.65 1034.16 1200.78 C 1029.02 1217.02 1037.19 1231.29 1054.35 1233.57 C 1081.01 1237.11 1115.95 1226.84 1140.43 1217 C 1219.46 1185.24 1280.89 1119.23 1318.37 1043.94 C 1332.22 1014.59 1328.35 990.067 1359.31 970.945 C 1408.18 940.758 1470.51 938.616 1524.23 955.852 C 1559.41 967.138 1599.14 968.559 1635.5 972.851 C 1661.81 975.995 1687.96 980.248 1713.91 985.598 C 1707.18 995.295 1698.96 1003.86 1689.55 1010.99 C 1623.13 1062.28 1486.78 1065.93 1406.93 1061.58 C 1387.3 1060.52 1358.29 1059.5 1339.07 1056.94 C 1312.8 1113.66 1265.67 1168.24 1214.58 1203.9 C 1201.43 1213.1 1187.55 1221.19 1173.06 1228.09 C 1119.86 1253.11 959.596 1301.21 1023.84 1177.78 C 1048.48 1130.44 1059.22 1096.12 1070.5 1044.86 C 1055.21 1042.33 1031.85 1040.22 1015.86 1038.99 C 957.227 1034.49 888.055 1031.9 829.548 1038.38 C 738.621 1047.57 644.983 1071.46 573.633 1131.67 C 534.207 1164.94 495.994 1216.16 490.877 1269.3 C 488.929 1289.54 494.787 1312.19 508.804 1327.1 C 526.666 1346.11 555.734 1363.44 577.364 1378.73 C 684.07 1454.14 804.981 1514.66 937.655 1522.67 C 808.689 1573.27 575.753 1544.52 472.583 1441.01 C 464.287 1432.69 456.289 1418.66 450.746 1408.29 C 428.442 1448.51 404.153 1464.91 362.956 1482.82 C 321.351 1500.91 287.682 1525.13 263.299 1564.07 C 259.477 1505.72 264.088 1471.89 288.359 1418.34 C 318.867 1351.03 375.195 1325.55 417.513 1270.34 C 447.493 1230.46 467.583 1183.33 493.183 1141.04 C 553.427 1041.51 637.093 920.249 763.953 908.4 z"/>
<path transform="translate(0,0)" fill="rgb(255,255,255)" d="M 714.135 572.579 C 778.824 566.689 858.128 583.412 918.282 606.104 C 935.698 612.674 957.38 624.01 973.823 628.275 C 980.09 629.9 1009.61 625.526 1018.37 624.87 C 1039.24 623.306 1060.26 621.775 1081.34 620.924 C 1178.61 616.563 1276 626.498 1370.38 650.409 C 1471 676.531 1587.78 727.081 1661.15 803.708 C 1671.3 814.299 1680.68 826.768 1688.49 839.101 C 1691.5 843.858 1699.53 859.804 1702.36 862.53 C 1718.28 878.027 1741.32 886.933 1752.35 907.498 C 1766.46 933.783 1752.42 955.283 1728.79 967.681 C 1732.48 961.076 1735.28 954.014 1737.11 946.677 C 1746.37 908.478 1712.97 901.632 1690.88 881.746 C 1684.04 875.584 1679.88 867.385 1675.08 859.671 C 1611 756.671 1428.11 689.385 1315.77 663.314 C 1236.01 645.166 1145.61 639.293 1064.19 642.361 C 1046.6 643.134 1029.03 644.433 1011.51 646.257 C 1001.63 647.21 977.893 650.029 968.928 648.741 C 947.561 645.671 919.636 631.903 898.56 624.253 C 820.12 595.783 751.401 585.925 669.385 600.744 C 699.861 625.047 725.292 649.621 732.355 690.46 C 734.941 705.416 732.429 726.553 722.71 738.706 C 713.27 750.508 693.501 760.413 680.688 769.239 C 665.7 779.562 650.51 789.607 636.213 801.108 C 589.26 838.16 547.235 881.062 511.16 928.77 C 499.821 943.619 491.069 957.998 480.565 972.053 C 514.307 896.657 578.374 823.193 641.847 771.654 C 649.953 765.04 658.229 758.636 666.666 752.449 C 672.027 748.551 698.856 730.429 700.91 726.09 C 728.73 667.316 663.951 617.47 625.072 589.775 C 654.145 578.85 683.411 574.768 714.135 572.579 z"/>
<path transform="translate(0,0)" fill="rgb(255,255,255)" d="M 1355.17 1096.85 C 1359.93 1097.12 1365.02 1097.66 1369.8 1098.07 C 1352.1 1150.8 1326.97 1195.32 1283.92 1232.08 C 1261.82 1250.95 1222.51 1276.52 1192.02 1274.17 C 1191.37 1273.96 1190.73 1273.73 1190.09 1273.5 C 1182.2 1270.57 1180.39 1266.81 1176.99 1259.5 C 1252.62 1226.3 1315.23 1169.15 1355.17 1096.85 z"/>
<path transform="translate(0,0)" fill="rgb(255,255,255)" d="M 1416.08 820.461 C 1436.46 816.443 1456.27 829.586 1460.49 849.922 C 1464.71 870.258 1451.76 890.198 1431.47 894.618 C 1410.89 899.101 1390.61 885.932 1386.33 865.31 C 1382.05 844.687 1395.42 824.536 1416.08 820.461 z"/>
<path transform="translate(0,0)" fill="rgb(255,255,255)" d="M 1505.98 849.738 C 1512.78 847.775 1520.11 849.617 1525.17 854.562 C 1530.24 859.506 1532.25 866.789 1530.45 873.632 C 1528.65 880.475 1523.31 885.823 1516.47 887.634 C 1506.05 890.391 1495.36 884.253 1492.49 873.87 C 1489.61 863.487 1495.63 852.726 1505.98 849.738 z"/>
</svg>